<svg width="33" height="32" viewBox="0 0 33 32" fill="none" xmlns="http://www.w3.org/2000/svg">
<rect x="0.308594" y="0.135498" width="32.1641" height="31.7011" rx="9.12" fill="#F7F5FF"/>
<path d="M24.8293 21.2668C24.8293 21.5671 24.7616 21.8758 24.6177 22.1761C24.4738 22.4765 24.2876 22.7601 24.0422 23.0271C23.6274 23.4776 23.1703 23.8029 22.654 24.0115C22.1462 24.22 21.596 24.3285 21.0035 24.3285C20.1402 24.3285 19.2176 24.1283 18.2442 23.7195C17.2708 23.3107 16.2974 22.7601 15.3325 22.0677C14.3591 21.3669 13.4365 20.5911 12.5562 19.7318C11.6844 18.8642 10.8972 17.9549 10.1947 17.0039C9.50062 16.0528 8.94198 15.1018 8.53569 14.1591C8.12941 13.2081 7.92627 12.2987 7.92627 11.4311C7.92627 10.8638 8.02784 10.3216 8.23098 9.82104C8.43412 9.31216 8.75576 8.84498 9.20437 8.42786C9.74608 7.90229 10.3386 7.64368 10.9649 7.64368C11.2019 7.64368 11.4389 7.69373 11.6505 7.79384C11.8706 7.89395 12.0653 8.04411 12.2176 8.26101L14.1813 10.989C14.3337 11.1975 14.4437 11.3894 14.5199 11.5729C14.5961 11.7481 14.6384 11.9233 14.6384 12.0818C14.6384 12.2821 14.5792 12.4823 14.4607 12.6741C14.3506 12.866 14.1898 13.0662 13.9867 13.2665L13.3434 13.9255C13.2503 14.0173 13.2079 14.1257 13.2079 14.2592C13.2079 14.3259 13.2164 14.3843 13.2333 14.4511C13.2587 14.5178 13.2841 14.5679 13.3011 14.6179C13.4534 14.8932 13.7158 15.2519 14.0882 15.6858C14.4691 16.1196 14.8754 16.5617 15.3155 17.0039C15.7726 17.446 16.2128 17.8548 16.6614 18.2302C17.1015 18.5972 17.4655 18.8475 17.7532 18.9977C17.7956 19.0144 17.8463 19.0394 17.9056 19.0644C17.9733 19.0895 18.041 19.0978 18.1172 19.0978C18.2611 19.0978 18.3711 19.0477 18.4642 18.956L19.1075 18.3303C19.3191 18.1217 19.5223 17.9632 19.7169 17.8631C19.9116 17.7463 20.1063 17.6879 20.3179 17.6879C20.4787 17.6879 20.648 17.7213 20.8342 17.7964C21.0204 17.8715 21.2151 17.9799 21.4267 18.1217L24.2284 20.0822C24.4484 20.2324 24.6008 20.4076 24.6939 20.6161C24.7786 20.8247 24.8293 21.0332 24.8293 21.2668Z" stroke="#5932EA" stroke-width="1.5" stroke-miterlimit="10"/>
</svg>
