<svg width="38" height="39" viewBox="0 0 38 39" fill="none" xmlns="http://www.w3.org/2000/svg">
<circle cx="18.9995" cy="19.0146" r="19" fill="#FFB987" fill-opacity="0.7"/>
<path d="M27.6196 15.4646C26.5696 10.8446 22.5396 8.76465 18.9996 8.76465C18.9996 8.76465 18.9996 8.76465 18.9896 8.76465C15.4596 8.76465 11.4196 10.8346 10.3696 15.4546C9.19961 20.6146 12.3596 24.9846 15.2196 27.7346C16.2796 28.7546 17.6396 29.2646 18.9996 29.2646C20.3596 29.2646 21.7196 28.7546 22.7696 27.7346C25.6296 24.9846 28.7896 20.6246 27.6196 15.4646ZM18.9996 20.4746C17.2596 20.4746 15.8496 19.0646 15.8496 17.3246C15.8496 15.5846 17.2596 14.1746 18.9996 14.1746C20.7396 14.1746 22.1496 15.5846 22.1496 17.3246C22.1496 19.0646 20.7396 20.4746 18.9996 20.4746Z" fill="#FB5926"/>
</svg>
