<svg width="33" height="33" viewBox="0 0 33 33" fill="none" xmlns="http://www.w3.org/2000/svg">
<ellipse cx="16.3994" cy="16.2359" rx="16.082" ry="15.8506" fill="#E5E5FE"/>
<path d="M23.6952 13.2745C22.8065 9.42028 19.3954 7.68506 16.399 7.68506C16.399 7.68506 16.399 7.68506 16.3906 7.68506C13.4027 7.68506 9.98314 9.41194 9.0944 13.2661C8.10408 17.5708 10.7788 21.2164 13.1996 23.5106C14.0968 24.3615 15.2479 24.787 16.399 24.787C17.5502 24.787 18.7013 24.3615 19.59 23.5106C22.0108 21.2164 24.6855 17.5791 23.6952 13.2745ZM16.399 17.454C14.9263 17.454 13.7328 16.2777 13.7328 14.8262C13.7328 13.3746 14.9263 12.1983 16.399 12.1983C17.8718 12.1983 19.0653 13.3746 19.0653 14.8262C19.0653 16.2777 17.8718 17.454 16.399 17.454Z" fill="#5251FA"/>
</svg>
