<svg width="82" height="597" viewBox="0 0 82 597" fill="none" xmlns="http://www.w3.org/2000/svg">
<g filter="url(#filter0_d_33_663)">
<path d="M12 71C12 66.5817 15.5817 63 20 63H62C66.4183 63 70 66.5817 70 71V113C70 117.418 66.4183 121 62 121H20C15.5817 121 12 117.418 12 113V71Z" fill="#FB5926"/>
</g>
<path d="M37.7974 26.9501H33.0116C30.6305 26.9501 29.4814 25.8484 29.4814 23.5739V4.85699C29.4814 2.58253 30.6424 1.48083 33.0116 1.48083H37.7974C40.1785 1.48083 41.3276 2.58253 41.3276 4.85699V23.5739C41.3276 25.8484 40.1667 26.9501 37.7974 26.9501ZM33.0116 3.25776C31.5071 3.25776 31.2584 3.66053 31.2584 4.85699V23.5739C31.2584 24.7704 31.5071 25.1731 33.0116 25.1731H37.7974C39.3019 25.1731 39.5507 24.7704 39.5507 23.5739V4.85699C39.5507 3.66053 39.3019 3.25776 37.7974 3.25776H33.0116Z" fill="#292D32"/>
<path d="M51.4195 16.2885H46.6337C44.2526 16.2885 43.1035 15.1868 43.1035 12.9124V4.85699C43.1035 2.58253 44.2644 1.48083 46.6337 1.48083H51.4195C53.8006 1.48083 54.9497 2.58253 54.9497 4.85699V12.9124C54.9497 15.1868 53.7887 16.2885 51.4195 16.2885ZM46.6337 3.25776C45.1292 3.25776 44.8804 3.66053 44.8804 4.85699V12.9124C44.8804 14.1088 45.1292 14.5116 46.6337 14.5116H51.4195C52.924 14.5116 53.1727 14.1088 53.1727 12.9124V4.85699C53.1727 3.66053 52.924 3.25776 51.4195 3.25776H46.6337Z" fill="#292D32"/>
<path d="M51.4195 26.9496H46.6337C44.2526 26.9496 43.1035 25.8479 43.1035 23.5734V21.4411C43.1035 19.1666 44.2644 18.0649 46.6337 18.0649H51.4195C53.8006 18.0649 54.9497 19.1666 54.9497 21.4411V23.5734C54.9497 25.8479 53.7887 26.9496 51.4195 26.9496ZM46.6337 19.8419C45.1292 19.8419 44.8804 20.2446 44.8804 21.4411V23.5734C44.8804 24.7699 45.1292 25.1726 46.6337 25.1726H51.4195C52.924 25.1726 53.1727 24.7699 53.1727 23.5734V21.4411C53.1727 20.2446 52.924 19.8419 51.4195 19.8419H46.6337Z" fill="#292D32"/>
<path d="M32.4697 88.4156C34.4027 88.4156 35.9697 86.8486 35.9697 84.9156C35.9697 82.9827 34.4027 81.4156 32.4697 81.4156C30.5367 81.4156 28.9697 82.9827 28.9697 84.9156C28.9697 86.8486 30.5367 88.4156 32.4697 88.4156Z" stroke="white" stroke-width="1.5"/>
<path d="M43.9697 94.4156H46.9697C48.0697 94.4156 48.9697 95.3156 48.9697 96.4156V99.4156C48.9697 100.516 48.0697 101.416 46.9697 101.416H43.9697C42.8697 101.416 41.9697 100.516 41.9697 99.4156V96.4156C41.9697 95.3156 42.8697 94.4156 43.9697 94.4156Z" stroke="white" stroke-width="1.5"/>
<path d="M38.9997 84.4156H41.6797C43.5297 84.4156 44.3897 86.7056 42.9997 87.9256L35.0097 94.9156C33.6197 96.1256 34.4797 98.4156 36.3197 98.4156H38.9997" stroke="white" stroke-width="1.5" stroke-linecap="round" stroke-linejoin="round"/>
<path d="M32.4857 84.9156H32.4973" stroke="white" stroke-width="2" stroke-linecap="round" stroke-linejoin="round"/>
<path d="M45.4857 97.9156H45.4973" stroke="white" stroke-width="2" stroke-linecap="round" stroke-linejoin="round"/>
<path d="M45.9795 166.206V170.206C45.9795 170.466 45.9695 170.716 45.9395 170.956C45.7095 173.656 44.1195 174.996 41.1895 174.996H40.7895C40.5395 174.996 40.2995 175.116 40.1495 175.316L38.9495 176.916C38.4195 177.626 37.5595 177.626 37.0295 176.916L35.8295 175.316C35.6995 175.146 35.4095 174.996 35.1895 174.996H34.7895C31.5995 174.996 29.9995 174.206 29.9995 170.206V166.206C29.9995 163.276 31.3495 161.686 34.0395 161.456C34.2795 161.426 34.5295 161.416 34.7895 161.416H41.1895C44.3795 161.416 45.9795 163.016 45.9795 166.206Z" stroke="#292D32" stroke-width="1.5" stroke-miterlimit="10" stroke-linecap="round" stroke-linejoin="round"/>
<path d="M49.9796 162.206V166.206C49.9796 169.146 48.6295 170.726 45.9395 170.956C45.9695 170.716 45.9796 170.466 45.9796 170.206V166.206C45.9796 163.016 44.3795 161.416 41.1895 161.416H34.7896C34.5296 161.416 34.2796 161.426 34.0396 161.456C34.2696 158.766 35.8596 157.416 38.7896 157.416H45.1895C48.3795 157.416 49.9796 159.016 49.9796 162.206Z" stroke="#292D32" stroke-width="1.5" stroke-miterlimit="10" stroke-linecap="round" stroke-linejoin="round"/>
<path d="M41.495 168.666H41.504" stroke="#292D32" stroke-width="2" stroke-linecap="round" stroke-linejoin="round"/>
<path d="M37.995 168.666H38.004" stroke="#292D32" stroke-width="2" stroke-linecap="round" stroke-linejoin="round"/>
<path d="M34.495 168.666H34.504" stroke="#292D32" stroke-width="2" stroke-linecap="round" stroke-linejoin="round"/>
<path d="M47 239.666V249.416C47 252.416 45.21 253.416 43 253.416H35C32.79 253.416 31 252.416 31 249.416V239.666C31 236.416 32.79 235.666 35 235.666C35 236.286 35.25 236.846 35.66 237.256C36.07 237.666 36.63 237.916 37.25 237.916H40.75C41.99 237.916 43 236.906 43 235.666C45.21 235.666 47 236.416 47 239.666Z" stroke="#292D32" stroke-width="1.5" stroke-linecap="round" stroke-linejoin="round"/>
<path d="M43 235.666C43 236.906 41.99 237.916 40.75 237.916H37.25C36.63 237.916 36.07 237.666 35.66 237.256C35.25 236.846 35 236.286 35 235.666C35 234.426 36.01 233.416 37.25 233.416H40.75C41.37 233.416 41.93 233.666 42.34 234.076C42.75 234.486 43 235.046 43 235.666Z" stroke="#292D32" stroke-width="1.5" stroke-linecap="round" stroke-linejoin="round"/>
<path d="M35 244.416H39" stroke="#292D32" stroke-width="1.5" stroke-linecap="round" stroke-linejoin="round"/>
<path d="M35 248.416H43" stroke="#292D32" stroke-width="1.5" stroke-linecap="round" stroke-linejoin="round"/>
<path d="M45.6618 519.036C44.7818 519.296 43.7418 519.416 42.5218 519.416H36.5218C35.3018 519.416 34.2618 519.296 33.3818 519.036C33.6018 516.436 36.2718 514.386 39.5218 514.386C42.7718 514.386 45.4418 516.436 45.6618 519.036Z" stroke="#292D32" stroke-width="1.5" stroke-linecap="round" stroke-linejoin="round"/>
<path d="M42.522 499.416H36.522C31.522 499.416 29.522 501.416 29.522 506.416V512.416C29.522 516.196 30.662 518.266 33.382 519.036C33.602 516.436 36.272 514.386 39.522 514.386C42.772 514.386 45.442 516.436 45.662 519.036C48.382 518.266 49.522 516.196 49.522 512.416V506.416C49.522 501.416 47.522 499.416 42.522 499.416ZM39.522 511.586C37.542 511.586 35.942 509.976 35.942 507.996C35.942 506.016 37.542 504.416 39.522 504.416C41.502 504.416 43.102 506.016 43.102 507.996C43.102 509.976 41.502 511.586 39.522 511.586Z" stroke="#292D32" stroke-width="1.5" stroke-linecap="round" stroke-linejoin="round"/>
<path d="M43.1019 507.996C43.1019 509.976 41.5019 511.586 39.5219 511.586C37.5419 511.586 35.9419 509.976 35.9419 507.996C35.9419 506.016 37.5419 504.416 39.5219 504.416C41.5019 504.416 43.1019 506.016 43.1019 507.996Z" stroke="#292D32" stroke-width="1.5" stroke-linecap="round" stroke-linejoin="round"/>
<path d="M45.0395 321.966C44.6195 322.376 44.3795 322.966 44.4395 323.596C44.5295 324.676 45.5195 325.466 46.5995 325.466H48.4995V326.656C48.4995 328.726 46.8095 330.416 44.7395 330.416H34.6295C34.9395 330.156 35.2095 329.836 35.4195 329.476C35.7895 328.876 35.9995 328.166 35.9995 327.416C35.9995 325.206 34.2095 323.416 31.9995 323.416C31.0595 323.416 30.1895 323.746 29.4995 324.296V319.926C29.4995 317.856 31.1895 316.166 33.2595 316.166H44.7395C46.8095 316.166 48.4995 317.856 48.4995 319.926V321.366H46.4795C45.9195 321.366 45.4095 321.586 45.0395 321.966Z" stroke="#292D32" stroke-width="1.5" stroke-linecap="round" stroke-linejoin="round"/>
<path d="M29.4995 320.826V316.256C29.4995 315.066 30.2295 314.006 31.3395 313.586L39.2795 310.586C40.5195 310.116 41.8495 311.036 41.8495 312.366V316.166" stroke="#292D32" stroke-width="1.5" stroke-linecap="round" stroke-linejoin="round"/>
<path d="M49.5583 322.386V324.446C49.5583 324.996 49.1183 325.446 48.5583 325.466H46.5983C45.5183 325.466 44.5283 324.676 44.4383 323.596C44.3783 322.966 44.6183 322.376 45.0383 321.966C45.4083 321.586 45.9183 321.366 46.4783 321.366H48.5583C49.1183 321.386 49.5583 321.836 49.5583 322.386Z" stroke="#292D32" stroke-width="1.5" stroke-linecap="round" stroke-linejoin="round"/>
<path d="M33.9995 320.416H40.9995" stroke="#292D32" stroke-width="1.5" stroke-linecap="round" stroke-linejoin="round"/>
<path d="M35.9995 327.416C35.9995 328.166 35.7895 328.876 35.4195 329.476C35.2095 329.836 34.9395 330.156 34.6295 330.416C33.9295 331.046 33.0095 331.416 31.9995 331.416C30.5395 331.416 29.2695 330.636 28.5795 329.476C28.2095 328.876 27.9995 328.166 27.9995 327.416C27.9995 326.156 28.5795 325.026 29.4995 324.296C30.1895 323.746 31.0595 323.416 31.9995 323.416C34.2095 323.416 35.9995 325.206 35.9995 327.416Z" stroke="#292D32" stroke-width="1.5" stroke-miterlimit="10" stroke-linecap="round" stroke-linejoin="round"/>
<path d="M30.4409 327.415L31.4309 328.405L33.5609 326.435" stroke="#292D32" stroke-width="1.5" stroke-linecap="round" stroke-linejoin="round"/>
<path d="M33.0005 388.416V391.416" stroke="#292D32" stroke-width="1.5" stroke-miterlimit="10" stroke-linecap="round" stroke-linejoin="round"/>
<path d="M41.0005 388.416V391.416" stroke="#292D32" stroke-width="1.5" stroke-miterlimit="10" stroke-linecap="round" stroke-linejoin="round"/>
<path d="M28.5005 395.506H45.5005" stroke="#292D32" stroke-width="1.5" stroke-miterlimit="10" stroke-linecap="round" stroke-linejoin="round"/>
<path d="M47.0005 405.416C47.0005 406.166 46.7905 406.876 46.4205 407.476C45.7305 408.636 44.4605 409.416 43.0005 409.416C41.9905 409.416 41.0705 409.046 40.3705 408.416C40.0605 408.156 39.7905 407.836 39.5805 407.476C39.2105 406.876 39.0005 406.166 39.0005 405.416C39.0005 403.206 40.7905 401.416 43.0005 401.416C44.2005 401.416 45.2705 401.946 46.0005 402.776C46.6205 403.486 47.0005 404.406 47.0005 405.416Z" stroke="#292D32" stroke-width="1.5" stroke-miterlimit="10" stroke-linecap="round" stroke-linejoin="round"/>
<path d="M41.4404 405.416L42.4304 406.406L44.5604 404.436" stroke="#292D32" stroke-width="1.5" stroke-linecap="round" stroke-linejoin="round"/>
<path d="M46.0005 394.916V402.776C45.2705 401.946 44.2005 401.416 43.0005 401.416C40.7905 401.416 39.0005 403.206 39.0005 405.416C39.0005 406.166 39.2105 406.876 39.5805 407.476C39.7905 407.836 40.0605 408.156 40.3705 408.416H33.0005C29.5005 408.416 28.0005 406.416 28.0005 403.416V394.916C28.0005 391.916 29.5005 389.916 33.0005 389.916H41.0005C44.5005 389.916 46.0005 391.916 46.0005 394.916Z" stroke="#292D32" stroke-width="1.5" stroke-miterlimit="10" stroke-linecap="round" stroke-linejoin="round"/>
<path d="M36.996 400.116H37.005" stroke="#292D32" stroke-width="2" stroke-linecap="round" stroke-linejoin="round"/>
<path d="M33.2948 400.116H33.3038" stroke="#292D32" stroke-width="2" stroke-linecap="round" stroke-linejoin="round"/>
<path d="M33.2948 403.116H33.3038" stroke="#292D32" stroke-width="2" stroke-linecap="round" stroke-linejoin="round"/>
<path d="M36.522 594.416H42.522C47.522 594.416 49.522 592.416 49.522 587.416V581.416C49.522 576.416 47.522 574.416 42.522 574.416H36.522C31.522 574.416 29.522 576.416 29.522 581.416V587.416C29.522 592.416 31.522 594.416 36.522 594.416Z" stroke="#292D32" stroke-width="1.5" stroke-linecap="round" stroke-linejoin="round"/>
<path d="M43.0918 590.916V587.016" stroke="#292D32" stroke-width="1.5" stroke-miterlimit="10" stroke-linecap="round" stroke-linejoin="round"/>
<path d="M43.0918 579.866V577.916" stroke="#292D32" stroke-width="1.5" stroke-miterlimit="10" stroke-linecap="round" stroke-linejoin="round"/>
<path d="M43.0922 585.066C44.5281 585.066 45.6922 583.902 45.6922 582.466C45.6922 581.03 44.5281 579.866 43.0922 579.866C41.6562 579.866 40.4922 581.03 40.4922 582.466C40.4922 583.902 41.6562 585.066 43.0922 585.066Z" stroke="#292D32" stroke-width="1.5" stroke-miterlimit="10" stroke-linecap="round" stroke-linejoin="round"/>
<path d="M35.9521 590.916V588.966" stroke="#292D32" stroke-width="1.5" stroke-miterlimit="10" stroke-linecap="round" stroke-linejoin="round"/>
<path d="M35.9521 581.816V577.916" stroke="#292D32" stroke-width="1.5" stroke-miterlimit="10" stroke-linecap="round" stroke-linejoin="round"/>
<path d="M35.9521 588.966C37.388 588.966 38.5521 587.802 38.5521 586.366C38.5521 584.93 37.388 583.766 35.9521 583.766C34.5161 583.766 33.3521 584.93 33.3521 586.366C33.3521 587.802 34.5161 588.966 35.9521 588.966Z" stroke="#292D32" stroke-width="1.5" stroke-miterlimit="10" stroke-linecap="round" stroke-linejoin="round"/>
<defs>
<filter id="filter0_d_33_663" x="0" y="59" width="82" height="82" filterUnits="userSpaceOnUse" color-interpolation-filters="sRGB">
<feFlood flood-opacity="0" result="BackgroundImageFix"/>
<feColorMatrix in="SourceAlpha" type="matrix" values="0 0 0 0 0 0 0 0 0 0 0 0 0 0 0 0 0 0 127 0" result="hardAlpha"/>
<feOffset dy="8"/>
<feGaussianBlur stdDeviation="6"/>
<feComposite in2="hardAlpha" operator="out"/>
<feColorMatrix type="matrix" values="0 0 0 0 0.52849 0 0 0 0 0.566891 0 0 0 0 0.9125 0 0 0 0.3 0"/>
<feBlend mode="normal" in2="BackgroundImageFix" result="effect1_dropShadow_33_663"/>
<feBlend mode="normal" in="SourceGraphic" in2="effect1_dropShadow_33_663" result="shape"/>
</filter>
</defs>
</svg>
