<svg width="46" height="46" viewBox="0 0 46 46" fill="none" xmlns="http://www.w3.org/2000/svg">
<ellipse cx="23.3152" cy="22.9531" rx="22.4329" ry="22.8656" fill="#00B074" fill-opacity="0.15"/>
<path d="M23.0801 12.974C22.7642 12.974 22.5159 12.721 22.5159 12.399V10.9498C22.5159 9.38555 21.2747 8.12037 19.7626 8.12037C19.0179 8.12037 18.3409 8.41941 17.7992 8.94849C17.2576 9.47756 16.9868 10.1907 16.9868 10.9498V12.399C16.9868 12.721 16.7385 12.974 16.4226 12.974C16.1066 12.974 15.8584 12.721 15.8584 12.399V10.9498C15.8584 9.89162 16.2646 8.90248 16.9868 8.14338C17.7315 7.38427 18.7019 6.97021 19.7401 6.97021C21.884 6.97021 23.6217 8.74146 23.6217 10.9268V12.376C23.6443 12.721 23.3961 12.974 23.0801 12.974Z" fill="#FFD497"/>
<path d="M31.9493 32.3658H15.4973L12.7666 10.8809H30.7983L31.9493 32.3658Z" fill="#00B074"/>
<path d="M15.4971 32.3658L11.5928 31.6757L7.66602 32.3658L8.83955 10.8809H14.3235L15.4971 32.3658Z" fill="#0A5239"/>
<path d="M22.6512 18.2878C20.5073 18.2878 18.7695 16.5165 18.7695 14.3312V12.882C18.7695 12.56 19.0178 12.3069 19.3337 12.3069C19.6497 12.3069 19.8979 12.56 19.8979 12.882V14.3312C19.8979 15.8954 21.1392 17.1376 22.6512 17.1376C24.1632 17.1376 25.427 15.8724 25.427 14.3082V12.859C25.427 12.537 25.6753 12.2839 25.9912 12.2839C26.3072 12.2839 26.5554 12.537 26.5554 12.859V14.3082C26.5554 16.5165 24.8177 18.2878 22.6512 18.2878Z" fill="white"/>
<path opacity="0.1" d="M23.667 29.4213C23.667 30.4795 23.9378 31.4916 24.4117 32.3657H31.9719L31.498 23.5325C30.9338 23.3485 30.3471 23.2565 29.7377 23.2565C26.3751 23.2565 23.667 26.0168 23.667 29.4213Z" fill="#0C1E5B"/>
<path d="M32.8743 35.5862C36.2147 35.5862 38.9225 32.8261 38.9225 29.4213C38.9225 26.0166 36.2147 23.2565 32.8743 23.2565C29.534 23.2565 26.8262 26.0166 26.8262 29.4213C26.8262 32.8261 29.534 35.5862 32.8743 35.5862Z" fill="#FF6966"/>
<path d="M32.2428 31.8137C32.0622 31.8137 31.9042 31.7447 31.7688 31.6067L29.8506 29.6514C29.5798 29.3754 29.5798 28.9383 29.8506 28.6853C30.1214 28.4092 30.5502 28.4092 30.7984 28.6853L32.2428 30.1575L34.9509 27.3971C35.2217 27.1211 35.6505 27.1211 35.8988 27.3971C36.1696 27.6731 36.1696 28.1102 35.8988 28.3632L32.7167 31.6067C32.5813 31.7447 32.4007 31.8137 32.2428 31.8137Z" fill="white"/>
</svg>
