<svg width="6" height="7" viewBox="0 0 6 7" fill="none" xmlns="http://www.w3.org/2000/svg">
<g clip-path="url(#clip0_53_52)">
<path d="M0.981175 3.31898C1.06937 3.40879 1.18897 3.45924 1.31368 3.45924C1.43839 3.45924 1.55799 3.40879 1.64618 3.31898L2.48943 2.46004L2.48943 5.61507C2.48943 5.74212 2.53898 5.86397 2.62718 5.95381C2.71538 6.04364 2.835 6.09412 2.95973 6.09412C3.08447 6.09412 3.20409 6.04364 3.29229 5.95381C3.38049 5.86397 3.43004 5.74212 3.43004 5.61507L3.43004 2.46004L4.27329 3.31898C4.36199 3.40624 4.48079 3.45453 4.6041 3.45344C4.72741 3.45234 4.84537 3.40196 4.93256 3.31314C5.01976 3.22432 5.06922 3.10417 5.07029 2.97857C5.07137 2.85296 5.02396 2.73195 4.93829 2.6416L3.29224 0.964925C3.20404 0.875117 3.08444 0.824666 2.95973 0.824666C2.83503 0.824666 2.71543 0.875117 2.62723 0.964925L0.981175 2.6416C0.893007 2.73144 0.843477 2.85326 0.843477 2.98029C0.843477 3.10732 0.893007 3.22914 0.981175 3.31898V3.31898Z" fill="#00A389"/>
</g>
<defs>
<clipPath id="clip0_53_52">
<rect width="5.64362" height="5.7486" fill="white" transform="translate(5.78174 6.33362) rotate(-180)"/>
</clipPath>
</defs>
</svg>
