<svg width="13" height="17" viewBox="0 0 13 17" fill="none" xmlns="http://www.w3.org/2000/svg">
<path d="M11.1622 13.4458H1.76244C1.62395 13.4458 1.49112 13.516 1.39319 13.6411C1.29525 13.7661 1.24023 13.9357 1.24023 14.1125C1.24023 14.2893 1.29525 14.4589 1.39319 14.584C1.49112 14.709 1.62395 14.7792 1.76244 14.7792H11.1622C11.3007 14.7792 11.4335 14.709 11.5315 14.584C11.6294 14.4589 11.6844 14.2893 11.6844 14.1125C11.6844 13.9357 11.6294 13.7661 11.5315 13.6411C11.4335 13.516 11.3007 13.4458 11.1622 13.4458Z" fill="#2D9CDB"/>
<path d="M6.46254 2.11169C6.32405 2.11169 6.19122 2.18194 6.09329 2.30697C5.99535 2.432 5.94033 2.60159 5.94033 2.77841V9.83894L4.22226 7.63878C4.12393 7.51323 3.99056 7.4427 3.85149 7.4427C3.71243 7.4427 3.57906 7.51323 3.48073 7.63878C3.38239 7.76432 3.32715 7.9346 3.32715 8.11214C3.32715 8.28969 3.38239 8.45997 3.48073 8.58551L6.09177 11.9191C6.14032 11.9816 6.19808 12.0312 6.26171 12.065C6.32535 12.0989 6.39361 12.1163 6.46254 12.1163C6.53148 12.1163 6.59974 12.0989 6.66337 12.065C6.72701 12.0312 6.78477 11.9816 6.83331 11.9191L9.44436 8.58551C9.49305 8.52335 9.53167 8.44955 9.55803 8.36833C9.58438 8.28711 9.59794 8.20006 9.59794 8.11214C9.59794 8.02423 9.58438 7.93718 9.55803 7.85596C9.53167 7.77474 9.49305 7.70094 9.44436 7.63878C9.39567 7.57661 9.33787 7.5273 9.27425 7.49366C9.21063 7.46001 9.14245 7.4427 9.07359 7.4427C9.00473 7.4427 8.93655 7.46001 8.87293 7.49366C8.80932 7.5273 8.75151 7.57661 8.70282 7.63878L6.98475 9.83894V2.77841C6.98475 2.60159 6.92974 2.432 6.8318 2.30697C6.73387 2.18194 6.60104 2.11169 6.46254 2.11169V2.11169Z" fill="#2D9CDB"/>
</svg>
