<svg width="7" height="7" viewBox="0 0 7 7" fill="none" xmlns="http://www.w3.org/2000/svg">
<g clip-path="url(#clip0_53_39)">
<path d="M1.66435 4.09642L3.25298 5.71461C3.3381 5.80128 3.45353 5.84998 3.57389 5.84998C3.69424 5.84998 3.80967 5.80128 3.89479 5.71461L5.48343 4.09642C5.56611 4.00922 5.61186 3.89244 5.61082 3.77121C5.60979 3.64999 5.56205 3.53403 5.4779 3.44831C5.39374 3.36259 5.2799 3.31396 5.16089 3.31291C5.04188 3.31186 4.92722 3.35846 4.84162 3.44268L4.02778 4.27165L4.02778 1.22668C4.02778 1.10406 3.97996 0.986466 3.89484 0.899761C3.80972 0.813056 3.69427 0.764345 3.57389 0.764345C3.45351 0.764345 3.33806 0.813056 3.25293 0.899761C3.16781 0.986466 3.11999 1.10406 3.11999 1.22668L3.11999 4.27165L2.30616 3.44267C2.22055 3.35846 2.1059 3.31185 1.98689 3.31291C1.86787 3.31396 1.75403 3.36259 1.66988 3.44831C1.58572 3.53403 1.53798 3.64999 1.53695 3.77121C1.53592 3.89244 1.58167 4.00922 1.66435 4.09642V4.09642Z" fill="#FF5B5B"/>
</g>
<defs>
<clipPath id="clip0_53_39">
<rect width="5.44675" height="5.54807" fill="white" transform="translate(6.29736 6.0813) rotate(-180)"/>
</clipPath>
</defs>
</svg>
