<svg width="8" height="7" viewBox="0 0 8 7" fill="none" xmlns="http://www.w3.org/2000/svg">
<g clip-path="url(#clip0_53_31)">
<path d="M1.7337 3.67982C1.83292 3.77446 1.96748 3.82763 2.10777 3.82763C2.24807 3.82763 2.38262 3.77446 2.48184 3.67982L3.43049 2.77459L3.43049 6.09963C3.43049 6.23353 3.48624 6.36194 3.58546 6.45662C3.68468 6.5513 3.81926 6.60449 3.95958 6.60449C4.09991 6.60449 4.23448 6.5513 4.33371 6.45662C4.43293 6.36194 4.48867 6.23353 4.48867 6.09963L4.48867 2.7746L5.43733 3.67982C5.53712 3.77178 5.67077 3.82267 5.80949 3.82152C5.94822 3.82037 6.08092 3.76727 6.17902 3.67367C6.27712 3.58006 6.33276 3.45343 6.33396 3.32106C6.33517 3.18869 6.28184 3.06116 6.18546 2.96594L4.33365 1.19892C4.23443 1.10427 4.09988 1.0511 3.95958 1.0511C3.81929 1.0511 3.68474 1.10427 3.58552 1.19892L1.73371 2.96594C1.63452 3.06061 1.57879 3.18901 1.57879 3.32288C1.57879 3.45675 1.63452 3.58514 1.7337 3.67982V3.67982Z" fill="#00A389"/>
</g>
<defs>
<clipPath id="clip0_53_31">
<rect width="6.34907" height="6.05836" fill="white" transform="translate(7.13428 6.85693) rotate(-180)"/>
</clipPath>
</defs>
</svg>
