<svg width="47" height="46" viewBox="0 0 47 46" fill="none" xmlns="http://www.w3.org/2000/svg">
<ellipse cx="24.4245" cy="22.9361" rx="22.4313" ry="22.8486" fill="#00B074" fill-opacity="0.15"/>
<path d="M21.1351 10.749L8.72803 15.92L21.1351 21.091L33.5422 15.92L21.1351 10.749Z" fill="#00B074"/>
<path d="M16.0994 12.8586L13.7642 13.8101L26.1712 19.0018L28.4861 18.0296L16.0994 12.8586Z" fill="#F7C604"/>
<path d="M8.72803 15.9199V30.1711L21.1351 35.3421V21.0909L8.72803 15.9199Z" fill="#0A5239"/>
<path d="M33.5418 15.9199V30.1711L21.1348 35.3421V21.0909L33.5418 15.9199Z" fill="#00D68D"/>
<path opacity="0.1" d="M33.5423 23.2008C33.1768 23.118 32.8113 23.0767 32.4254 23.0767C29.4201 23.0767 26.9834 25.5587 26.9834 28.6199C26.9834 30.0471 27.5114 31.3502 28.3845 32.3224L33.5423 30.1712V23.2008V23.2008Z" fill="#0C1E5B"/>
<path d="M26.1709 19.0017V24.9793L28.4858 24.0072V18.0295L26.1709 19.0017Z" fill="#F7C604"/>
<path d="M34.6388 33.7494C37.6444 33.7494 40.0809 31.2676 40.0809 28.2061C40.0809 25.1447 37.6444 22.6628 34.6388 22.6628C31.6333 22.6628 29.1968 25.1447 29.1968 28.2061C29.1968 31.2676 31.6333 33.7494 34.6388 33.7494Z" fill="#FF5B5B"/>
<path d="M34.0706 30.3574C33.9081 30.3574 33.766 30.2954 33.6441 30.1713L31.9181 28.4131C31.6744 28.1649 31.6744 27.7719 31.9181 27.5444C32.1618 27.2962 32.5476 27.2962 32.771 27.5444L34.0706 28.8682L36.5073 26.3861C36.751 26.1379 37.1368 26.1379 37.3602 26.3861C37.6038 26.6343 37.6038 27.0273 37.3602 27.2548L34.497 30.1713C34.3752 30.2954 34.233 30.3574 34.0706 30.3574Z" fill="white"/>
<path d="M2.7486 31.2476L1.4084 28.4346L0.149414 30.11L0.839824 30.4202V32.2404L1.95666 32.7575V30.9166L2.7486 31.2476Z" fill="#F2F5F3"/>
</svg>
