<svg width="46" height="46" viewBox="0 0 46 46" fill="none" xmlns="http://www.w3.org/2000/svg">
<ellipse cx="23.4095" cy="23.2517" rx="22.4163" ry="22.318" fill="#00B074" fill-opacity="0.15"/>
<path d="M10.9116 34.6862C12.5956 34.6862 13.9716 33.3146 13.9716 31.6359V11.9829H31.8384V31.6359C31.8384 33.3146 30.4625 34.6862 28.7785 34.6862" fill="#00B074"/>
<path d="M25.7184 31.636V29.3226H7.85156V31.636C7.85156 33.3146 9.22752 34.6863 10.9115 34.6863H28.7784C27.0944 34.6863 25.7184 33.3146 25.7184 31.636Z" fill="#0A5239"/>
<path d="M19.4549 15.8929H17.1753V16.8756H19.4549V15.8929Z" fill="white"/>
<path d="M28.2237 15.8929H21.2207V16.8756H28.2237V15.8929Z" fill="#F7C604"/>
<path d="M19.4549 19.3732H17.1753V20.3558H19.4549V19.3732Z" fill="white"/>
<path d="M28.2237 19.3732H21.2207V20.3558H28.2237V19.3732Z" fill="#F7C604"/>
<path d="M19.4549 22.8535H17.1753V23.8362H19.4549V22.8535Z" fill="white"/>
<path d="M28.2237 22.8535H21.2207V23.8362H28.2237V22.8535Z" fill="#F7C604"/>
<path d="M19.4549 26.3336H17.1753V27.3163H19.4549V26.3336Z" fill="white"/>
<path d="M28.2237 26.3336H21.2207V27.3163H28.2237V26.3336Z" fill="#F7C604"/>
<path opacity="0.1" d="M31.8385 26.4975V14.8081C31.592 14.7672 31.3251 14.7467 31.0581 14.7467C27.7928 14.7467 25.1436 17.3876 25.1436 20.6426C25.1436 23.8976 27.7928 26.5385 31.0581 26.5385C31.3251 26.559 31.592 26.5385 31.8385 26.4975Z" fill="#0C1E5B"/>
<path d="M33.1329 25.3716C36.3994 25.3716 39.0475 22.7319 39.0475 19.4757C39.0475 16.2194 36.3994 13.5797 33.1329 13.5797C29.8663 13.5797 27.2183 16.2194 27.2183 19.4757C27.2183 22.7319 29.8663 25.3716 33.1329 25.3716Z" fill="#FF5B5B"/>
<path d="M34.1797 19.885V16.2206H32.085V19.885H30.6885L33.1323 22.7306L35.5762 19.885H34.1797Z" fill="white"/>
</svg>
