<svg width="44" height="46" viewBox="0 0 44 46" fill="none" xmlns="http://www.w3.org/2000/svg">
<ellipse cx="22.1906" cy="23.2342" rx="21.5324" ry="22.32" fill="#00B074" fill-opacity="0.15"/>
<path d="M10.1855 34.6697C11.8031 34.6697 13.1248 33.2979 13.1248 31.6191V11.9644H30.2872V31.6191C30.2872 33.2979 28.9655 34.6697 27.3479 34.6697" fill="#00B074"/>
<path d="M24.4084 31.6192V29.3057H7.24609V31.6192C7.24609 33.298 8.56779 34.6698 10.1854 34.6698H27.3477C25.7301 34.6698 24.4084 33.298 24.4084 31.6192Z" fill="#0A5239"/>
<path d="M18.3918 15.8749H16.2021V16.8576H18.3918V15.8749Z" fill="#F7C604"/>
<path d="M26.8152 15.8749H20.0884V16.8576H26.8152V15.8749Z" fill="#F3F2F7"/>
<path d="M18.3918 19.3552H16.2021V20.338H18.3918V19.3552Z" fill="#F7C604"/>
<path d="M26.8152 19.3552H20.0884V20.338H26.8152V19.3552Z" fill="#F3F2F7"/>
<path d="M18.3918 22.8359H16.2021V23.8187H18.3918V22.8359Z" fill="#F7C604"/>
<path d="M26.8152 22.8359H20.0884V23.8187H26.8152V22.8359Z" fill="#F3F2F7"/>
<path d="M18.3918 26.3165H16.2021V27.2993H18.3918V26.3165Z" fill="#F7C604"/>
<path d="M26.8152 26.3165H20.0884V27.2993H26.8152V26.3165Z" fill="#F3F2F7"/>
<path opacity="0.1" d="M30.2869 26.4803V14.7898C30.0502 14.7489 29.7937 14.7284 29.5373 14.7284C26.4007 14.7284 23.856 17.3695 23.856 20.6248C23.856 23.8801 26.4007 26.5212 29.5373 26.5212C29.7937 26.5417 30.0502 26.5212 30.2869 26.4803Z" fill="#0C1E5B"/>
<path d="M31.53 25.3543C34.6678 25.3543 37.2114 22.7143 37.2114 19.4578C37.2114 16.2012 34.6678 13.5613 31.53 13.5613C28.3923 13.5613 25.8486 16.2012 25.8486 19.4578C25.8486 22.7143 28.3923 25.3543 31.53 25.3543Z" fill="#FF5B5B"/>
<path d="M33.7603 17.0533L29.1226 21.8607M29.1226 17.0533L33.7603 21.8607" stroke="white" stroke-width="4"/>
<path d="M33.7603 17.0533L29.1226 21.8607M29.1226 17.0533L33.7603 21.8607" stroke="white" stroke-width="4"/>
</svg>
