<svg width="7" height="7" viewBox="0 0 7 7" fill="none" xmlns="http://www.w3.org/2000/svg">
<g clip-path="url(#clip0_53_43)">
<path d="M1.7806 4.07454L3.39811 5.75122C3.48478 5.84103 3.6023 5.89148 3.72485 5.89148C3.84739 5.89148 3.96492 5.84103 4.05159 5.75122L5.6691 4.07454C5.75328 3.98419 5.79986 3.86319 5.79881 3.73758C5.79776 3.61197 5.74915 3.49182 5.66347 3.403C5.57778 3.31418 5.46187 3.2638 5.3407 3.26271C5.21952 3.26162 5.10279 3.30991 5.01562 3.39717L4.187 4.2561L4.187 1.10108C4.187 0.974028 4.13831 0.85218 4.05164 0.762341C3.96497 0.672502 3.84742 0.62203 3.72485 0.62203C3.60228 0.62203 3.48473 0.672501 3.39806 0.762341C3.31139 0.85218 3.2627 0.974028 3.2627 1.10108L3.2627 4.2561L2.43408 3.39717C2.34691 3.3099 2.23017 3.26162 2.109 3.26271C1.98783 3.2638 1.87192 3.31418 1.78623 3.403C1.70054 3.49182 1.65194 3.61197 1.65089 3.73758C1.64984 3.86319 1.69642 3.98419 1.7806 4.07454V4.07454Z" fill="#FF5B5B"/>
</g>
<defs>
<clipPath id="clip0_53_43">
<rect width="5.54575" height="5.7486" fill="white" transform="translate(6.49805 6.1311) rotate(-180)"/>
</clipPath>
</defs>
</svg>
