<svg width="27" height="26" viewBox="0 0 27 26" fill="none" xmlns="http://www.w3.org/2000/svg">
<path d="M25.585 0.641915L26.3255 1.3473C27.3459 2.3205 27.1915 4.04571 25.9778 5.20063L10.7072 19.7472L5.7596 21.4712C5.13834 21.6888 4.53338 21.4066 4.41038 20.8435C4.36882 20.6392 4.38839 20.4279 4.46686 20.2338L6.31184 15.4802L21.5398 0.973088C22.7535 -0.181835 24.5646 -0.330085 25.585 0.64311V0.641915ZM10.0407 2.08856C10.2055 2.08856 10.3687 2.11948 10.521 2.17956C10.6733 2.23965 10.8117 2.32771 10.9282 2.43873C11.0447 2.54975 11.1372 2.68155 11.2003 2.8266C11.2633 2.97166 11.2958 3.12712 11.2958 3.28413C11.2958 3.44113 11.2633 3.5966 11.2003 3.74165C11.1372 3.88671 11.0447 4.01851 10.9282 4.12953C10.8117 4.24055 10.6733 4.32861 10.521 4.38869C10.3687 4.44878 10.2055 4.4797 10.0407 4.4797H5.02036C4.35462 4.4797 3.71614 4.73162 3.24539 5.18005C2.77464 5.62848 2.51018 6.23667 2.51018 6.87085V21.2177C2.51018 21.8519 2.77464 22.4601 3.24539 22.9085C3.71614 23.3569 4.35462 23.6089 5.02036 23.6089H20.0814C20.7472 23.6089 21.3856 23.3569 21.8564 22.9085C22.3271 22.4601 22.5916 21.8519 22.5916 21.2177V16.4354C22.5916 16.1183 22.7238 15.8142 22.9592 15.59C23.1946 15.3658 23.5138 15.2399 23.8467 15.2399C24.1796 15.2399 24.4988 15.3658 24.7342 15.59C24.9696 15.8142 25.1018 16.1183 25.1018 16.4354V21.2177C25.1018 22.4861 24.5729 23.7024 23.6314 24.5993C22.6899 25.4962 21.4129 26 20.0814 26H5.02036C3.68888 26 2.41193 25.4962 1.47043 24.5993C0.528929 23.7024 0 22.4861 0 21.2177V6.87085C0 5.6025 0.528929 4.38611 1.47043 3.48926C2.41193 2.5924 3.68888 2.08856 5.02036 2.08856H10.0407V2.08856Z" fill="#BFBFBF"/>
</svg>
