<svg width="292" height="75" viewBox="0 0 292 75" fill="none" xmlns="http://www.w3.org/2000/svg">
<path d="M27.9205 24.9221L4.70484 52.9834C1.88633 56.3902 0.344238 60.6733 0.344238 65.0949V74.1744H291.426V18.631C291.426 12.2521 288.225 6.29896 282.904 2.78124L281.765 2.02831C277.827 -0.575139 272.837 0.726667 270.226 5.03872L252.009 35.1273C249.233 39.7122 243.814 40.849 239.841 37.6799L236.478 34.9969C232.473 31.8028 227.008 32.9859 224.254 37.6428L216.385 50.9505C212.948 56.7625 205.622 56.8907 202.037 51.2015L187.497 28.1278C184.111 22.754 177.298 22.5102 173.636 27.6318L163.31 42.072C160.81 45.5673 156.636 46.7274 153.052 44.9225L140.882 38.7919C137.923 37.3012 134.479 38.1382 132.278 40.8833C129.222 44.6931 124.024 44.6369 121.029 40.7617L94.6202 6.58793C90.9407 1.82657 84.4602 2.11553 81.1034 7.19063L63.1425 34.3456C59.9457 39.1788 53.8599 39.713 50.0784 35.4924L40.3492 24.6335C36.8452 20.7225 31.2881 20.8516 27.9205 24.9221Z" fill="url(#paint0_linear_33_636)"/>
<defs>
<linearGradient id="paint0_linear_33_636" x1="145.875" y1="-52.8135" x2="145.889" y2="74.1744" gradientUnits="userSpaceOnUse">
<stop stop-color="#6EC8EF"/>
<stop offset="1" stop-color="white"/>
</linearGradient>
</defs>
</svg>
