<svg width="27" height="27" viewBox="0 0 27 27" fill="none" xmlns="http://www.w3.org/2000/svg">
<path d="M23.1972 9.16886C22.016 4.16386 17.4822 1.91052 13.4997 1.91052C13.4997 1.91052 13.4997 1.91052 13.4885 1.91052C9.51724 1.91052 4.97224 4.15302 3.79099 9.15802C2.47474 14.748 6.02974 19.4822 9.24724 22.4614C10.4397 23.5664 11.9697 24.1189 13.4997 24.1189C15.0297 24.1189 16.5597 23.5664 17.741 22.4614C20.9585 19.4822 24.5135 14.7589 23.1972 9.16886ZM13.4997 14.5964C11.5422 14.5964 9.95599 13.0689 9.95599 11.1839C9.95599 9.29886 11.5422 7.77136 13.4997 7.77136C15.4572 7.77136 17.0435 9.29886 17.0435 11.1839C17.0435 13.0689 15.4572 14.5964 13.4997 14.5964Z" fill="#FB5926"/>
</svg>
